<?xml version="1.0" encoding="UTF-8"?><svg id="_層_2" xmlns="http://www.w3.org/2000/svg" viewBox="0 0 174.5 99.6"><defs><style>.cls-1,.cls-2{fill:#fff;}.cls-3{fill:#42210b;}.cls-4{fill:#29abe2;}.cls-5{fill:#4a221a;}.cls-2{stroke:#4a221a;stroke-miterlimit:10;stroke-width:1.5px;}</style></defs><g id="_層_1-2"><g><path class="cls-2" d="M162.1,94.82c.55-1.18,1.01-1.91,1.23-2.71,.32-1.16,.91-1.65,2.16-1.92,4.55-.98,8.02-5.17,8.13-9.79,.11-4.51,.22-9.03,0-13.53-.2-4.12-2.34-7.22-6.19-8.87-4.34-1.85-8.78-3.45-13.12-5.3-.81-.34-1.47-1.27-1.95-2.07-.51-.86-.73-1.89-1.08-2.85-3.44-9.54-6.91-19.07-10.3-28.62-.64-1.81-1.7-2.47-3.6-2.44-5.59,.1-11.19,.01-16.78,.06-1.17,0-1.67-.32-1.6-1.55,.09-1.44-.06-2.9,.02-4.35,.34-5.83-4.05-10.18-10.12-10.14-22.96,.13-45.93,.05-68.9,.05-4.3,0-8.61-.03-12.91,.03-5.55,.08-9.27,3.86-9.28,9.39-.02,10.47-.02,20.95-.02,31.42,0,3.65-.05,7.31,.03,10.96,.03,1.33-.41,1.89-1.74,1.82-.8-.05-1.61,0-2.42-.01-1.31-.02-1.9,.86-1.96,1.92-.07,1.08,.69,1.78,1.8,1.87,1.01,.09,2.05,.15,3.05,.06,.96-.09,1.26,.27,1.26,1.15,0,1.23-.04,2.48,.09,3.7,.47,4.61,3.14,7.54,7.61,8.28,1.16,.19,1.33,.87,1.33,1.81,0,3.22-.02,6.44,.01,9.67,.07,6.55,4.57,8.37,9.87,7.58,.62-.09,1.43-1.01,1.57-1.68,.22-1.01-.4-1.87-1.59-2-.96-.1-1.92-.13-2.89-.19-1.94-.11-3.01-1.07-3.05-2.99-.08-3.54-.03-7.09-.06-10.63,0-1.1,.45-1.46,1.57-1.45,25.65,.03,51.31,.03,76.96,.03,.75,0,1.51-.04,2.25-.13,3.33-.41,6.56-3.24,7.09-6.56,.38-2.37,.42-4.81,.39-7.21-.02-1.57,.51-1.99,2.04-1.98,6.72,.04,13.44-.01,20.16-.1,2.48-.03,3.02-.88,2.27-3.3-2.29-7.43-4.62-14.85-6.87-22.29-.43-1.43-1.17-1.96-2.65-1.94-4.41,.06-8.82-.02-13.23,.04-1.24,.02-1.78-.33-1.72-1.62,.08-1.45,.08-2.9,.02-4.35-.04-1.06,.38-1.39,1.42-1.38,5.22,.04,10.43,.04,15.65,0,.9,0,1.35,.29,1.65,1.14,3.73,10.34,7.52,20.66,11.2,31.02,.58,1.62,1.48,2.61,3.06,3.21,4.47,1.7,8.92,3.46,13.36,5.24,2.7,1.08,4.28,3.12,4.38,6,.13,4.18,.09,8.38,.03,12.57-.03,2.56-1.26,4.49-3.49,5.78-1.93,1.12-2.15,1.05-3.01-.98-2.13-5.04-7.89-7.61-12.95-5.78-5.09,1.84-7.85,7.28-6.3,12.49,.32,1.08,.79,2.11,1.26,3.34H60.2c.08-2.93,1.22-4.16,3.81-4.16,24.26,0,48.51,0,72.77,0,.75,0,1.6,.19,2.23-.09,.67-.3,1.58-1.06,1.57-1.61,0-.7-.69-1.62-1.34-2.02-.61-.37-1.56-.23-2.37-.23-23.23-.01-46.47-.01-69.7-.01-1.56,0-3.13,.07-4.67-.05-.47-.04-1.15-.55-1.29-.99-1.42-4.54-6.05-7.67-10.78-7.21-6.59,.64-11.79,8.03-8.11,15.01,.2,.39,.37,.8,.68,1.48-1.46,0-2.58-.02-3.7,0-1.34,.03-2.69,.02-4.02,.16-1.01,.11-1.67,.71-1.61,1.84,.06,1.13,.62,1.8,1.79,1.88,.59,.04,1.18,.07,1.77,.07,43.4,0,86.81,0,130.21,0,.91,0,1.91,.21,2.72-.09,.72-.26,1.52-.98,1.77-1.68,.33-.95-.33-1.78-1.36-2.01-.67-.15-1.38-.16-2.07-.17-2.01-.02-4.02,0-6.39,0ZM16.01,76.72c-1.18,0-2.36-.02-3.54,0-1.21,.03-1.71,.87-1.74,1.9-.04,1.05,.46,1.94,1.64,1.98,2.46,.07,4.93,.07,7.39,.01,1.14-.03,1.93-.6,1.96-1.88,.03-1.37-.8-1.93-2.01-2-1.23-.07-2.46-.01-3.7-.02Zm101.14,4.52c1.02,0,2.04,.05,3.06-.01,1.14-.07,1.79-.75,1.78-1.89-.02-1.13-.69-1.83-1.82-1.87-1.98-.06-3.97-.04-5.96,0-1.2,.02-1.74,.86-1.77,1.91-.04,1.13,.68,1.78,1.81,1.85,.96,.06,1.93,.01,2.9,0Zm-15.73,.03v-.02c.97,0,1.93,.01,2.9,0,1.21-.02,1.73-.77,1.82-1.85,.09-1.1-.55-1.8-1.57-1.86-2.03-.12-4.1-.23-6.11,0-.69,.08-1.65,1.08-1.81,1.8-.26,1.17,.74,1.82,1.88,1.92,.96,.08,1.93,.02,2.9,.02Zm31.4,0v-.04c1.12,0,2.3,.2,3.35-.07,.65-.17,1.58-1.09,1.55-1.63-.03-.69-.84-1.85-1.42-1.91-2.11-.24-4.28-.25-6.39-.04-.61,.06-1.5,1.13-1.58,1.82-.12,1.08,.67,1.86,1.92,1.87,.86,0,1.71,0,2.57,0ZM26.05,98.72v.1c.86-.04,1.72-.02,2.56-.13,.99-.14,1.72-.66,1.72-1.77,0-1.02-.45-1.85-1.54-1.92-1.75-.11-3.53-.16-5.27-.03-1.05,.08-1.92,.9-1.61,1.98,.2,.7,1.03,1.41,1.76,1.72,.68,.29,1.58,.06,2.38,.06ZM3.62,80.66c.97,0,1.5,.02,2.04,0,1.26-.07,2.04-.72,2.03-2,0-1.2-.75-1.88-1.93-1.92-1.17-.04-2.4-.15-3.5,.14-.64,.17-1.52,1.1-1.5,1.66,.03,.69,.78,1.49,1.42,1.95,.44,.32,1.24,.15,1.45,.16Zm13.09,18.13c1.16-.13,2.09-.55,2.08-1.92,0-1.32-.83-1.93-2.05-1.98-1.27-.05-2.02,.68-2.09,1.92-.08,1.36,.88,1.8,2.06,1.98ZM6.65,58.14c1.27,.01,2.06-.66,2.07-1.89,0-1.16-.81-1.81-1.98-1.83-1.22-.02-2.1,.46-2.12,1.82-.03,1.34,.74,1.91,2.03,1.9Z"/><path class="cls-3" d="M162.1,94.82c2.37,0,4.38-.01,6.39,0,.69,0,1.41,.01,2.07,.17,1.04,.24,1.69,1.07,1.36,2.01-.24,.7-1.05,1.42-1.77,1.68-.81,.29-1.8,.09-2.72,.09-43.4,0-86.81,0-130.21,0-.59,0-1.18-.03-1.77-.07-1.17-.07-1.73-.75-1.79-1.88-.06-1.13,.6-1.74,1.61-1.84,1.33-.14,2.68-.14,4.02-.16,1.12-.02,2.24,0,3.7,0-.31-.68-.47-1.09-.68-1.48-3.69-6.97,1.52-14.36,8.11-15.01,4.73-.46,9.36,2.67,10.78,7.21,.14,.44,.82,.95,1.29,.99,1.55,.13,3.12,.05,4.67,.05,23.23,0,46.47,0,69.7,.01,.8,0,1.76-.14,2.37,.23,.65,.4,1.33,1.32,1.34,2.02,0,.55-.9,1.31-1.57,1.61-.63,.28-1.48,.09-2.23,.09-24.26,0-48.51,0-72.77,0-2.58,0-3.73,1.23-3.81,4.16h85.08c-.47-1.23-.94-2.27-1.26-3.34-1.55-5.22,1.21-10.66,6.3-12.49,5.06-1.83,10.83,.75,12.95,5.78,.86,2.03,1.08,2.1,3.01,.98,2.23-1.29,3.46-3.22,3.49-5.78,.06-4.19,.1-8.38-.03-12.57-.09-2.89-1.68-4.93-4.38-6-4.44-1.77-8.89-3.54-13.36-5.24-1.58-.6-2.49-1.59-3.06-3.21-3.68-10.36-7.47-20.68-11.2-31.02-.31-.85-.76-1.14-1.65-1.14-5.22,.04-10.43,.04-15.65,0-1.04,0-1.46,.32-1.42,1.38,.06,1.45,.06,2.9-.02,4.35-.07,1.29,.48,1.64,1.72,1.62,4.41-.06,8.82,.02,13.23-.04,1.47-.02,2.22,.52,2.65,1.94,2.25,7.44,4.58,14.86,6.87,22.29,.75,2.42,.21,3.27-2.27,3.3-6.72,.09-13.44,.14-20.16,.1-1.53,0-2.06,.41-2.04,1.98,.03,2.41-.01,4.85-.39,7.21-.53,3.32-3.76,6.15-7.09,6.56-.74,.09-1.5,.13-2.25,.13-25.65,0-51.31,0-76.96-.03-1.12,0-1.58,.35-1.57,1.45,.03,3.54-.01,7.09,.06,10.63,.04,1.93,1.11,2.88,3.05,2.99,.96,.06,1.93,.09,2.89,.19,1.19,.12,1.81,.99,1.59,2-.14,.66-.95,1.58-1.57,1.68-5.3,.78-9.8-1.03-9.87-7.58-.03-3.22-.02-6.44-.01-9.67,0-.94-.17-1.62-1.33-1.81-4.46-.74-7.14-3.67-7.61-8.28-.12-1.22-.09-2.47-.09-3.7,0-.88-.3-1.24-1.26-1.15-1.01,.09-2.04,.02-3.05-.06-1.11-.09-1.87-.79-1.8-1.87,.07-1.06,.65-1.94,1.96-1.92,.81,.02,1.61-.04,2.42,.01,1.33,.08,1.77-.48,1.74-1.82-.08-3.65-.03-7.3-.03-10.96,0-10.47,0-20.95,.02-31.42,.01-5.53,3.73-9.32,9.28-9.39,4.3-.06,8.61-.03,12.91-.03,22.97,0,45.93,.08,68.9-.05,6.06-.03,10.46,4.31,10.12,10.14-.08,1.44,.06,2.9-.02,4.35-.07,1.24,.43,1.56,1.6,1.55,5.59-.05,11.19,.04,16.78-.06,1.91-.03,2.96,.63,3.6,2.44,3.39,9.56,6.86,19.09,10.3,28.62,.35,.96,.56,1.99,1.08,2.85,.48,.8,1.14,1.73,1.95,2.07,4.34,1.85,8.78,3.45,13.12,5.3,3.85,1.64,5.99,4.75,6.19,8.87,.22,4.5,.12,9.02,0,13.53-.12,4.62-3.59,8.81-8.13,9.79-1.25,.27-1.83,.76-2.16,1.92-.22,.8-.68,1.53-1.23,2.71Zm-93.51-27.16v-.04c13.55,0,27.1,.02,40.65-.03,1.14,0,2.39-.23,3.39-.74,1.92-.98,2.43-2.82,2.43-4.9-.02-17.02-.01-34.04-.02-51.06,0-4.33-1.83-6.15-6.16-6.15-26.35,0-52.69,0-79.04,0-1.13,0-2.26-.04-3.38,.05-2.27,.19-3.84,1.41-4.48,3.56-.3,.99-.17,2.13-.17,3.2,0,16.75,0,33.5,0,50.25,0,3.87,1.94,5.86,5.82,5.86,13.66,0,27.31,0,40.97,0Zm70.36-16.03c-.08-.63-.07-1.11-.21-1.56-1.7-5.59-3.43-11.17-5.13-16.75-.32-1.04-.95-1.4-2.03-1.38-3.6,.06-7.2,.08-10.8,0-1.32-.03-1.8,.37-1.78,1.71,.05,5.47,.06,10.95,0,16.42-.01,1.39,.53,1.71,1.81,1.7,5.48-.05,10.96-.02,16.45-.03,.52,0,1.03-.07,1.69-.12Zm14.85,43.18c3.63,.23,6.42-3.38,6.3-6.32-.14-3.46-3-6.33-6.44-6.26-3.52,.07-6.22,2.9-6.17,6.47,.05,3.47,2.81,6.14,6.3,6.11Zm-108.7-6.24c.02,3.67,2.74,6.29,6.49,6.24,3.35-.04,6.06-2.81,6.07-6.2,0-3.6-2.83-6.42-6.43-6.38-3.37,.03-6.15,2.91-6.13,6.34Z"/><path class="cls-3" d="M16.01,76.72c1.23,0,2.47-.05,3.7,.02,1.22,.06,2.04,.63,2.01,2-.02,1.28-.81,1.86-1.96,1.88-2.46,.06-4.93,.06-7.39-.01-1.18-.03-1.68-.93-1.64-1.98,.03-1.03,.53-1.87,1.74-1.9,1.18-.03,2.36,0,3.54,0Z"/><path class="cls-5" d="M117.15,81.24c-.97,0-1.94,.05-2.9-.01-1.13-.07-1.85-.71-1.81-1.85,.04-1.05,.57-1.89,1.77-1.91,1.99-.04,3.98-.06,5.96,0,1.12,.04,1.8,.74,1.82,1.87,.02,1.14-.64,1.82-1.78,1.89-1.02,.06-2.04,.01-3.06,.01Z"/><path class="cls-5" d="M101.42,81.26c-.97,0-1.94,.07-2.9-.02-1.14-.1-2.14-.74-1.88-1.92,.16-.73,1.12-1.73,1.81-1.8,2.01-.22,4.07-.12,6.11,0,1.02,.06,1.67,.76,1.57,1.86-.09,1.08-.61,1.83-1.82,1.85-.97,.01-1.93,0-2.9,0v.02Z"/><path class="cls-5" d="M132.83,81.25c-.86,0-1.71,0-2.57,0-1.25,0-2.05-.79-1.92-1.87,.08-.69,.97-1.76,1.58-1.82,2.11-.22,4.28-.21,6.39,.04,.58,.07,1.39,1.23,1.42,1.91,.02,.55-.9,1.46-1.55,1.63-1.05,.28-2.23,.07-3.35,.07v.04Z"/><path class="cls-3" d="M26.05,98.72c-.8,0-1.7,.23-2.38-.06-.72-.31-1.55-1.02-1.76-1.72-.31-1.08,.56-1.9,1.61-1.98,1.75-.13,3.52-.08,5.27,.03,1.09,.07,1.53,.9,1.54,1.92,0,1.11-.73,1.64-1.72,1.77-.84,.12-1.71,.09-2.56,.13v-.1Z"/><path class="cls-3" d="M3.62,80.66c-.21-.02-1,.16-1.45-.16-.65-.46-1.4-1.27-1.42-1.95-.02-.56,.86-1.49,1.5-1.66,1.1-.3,2.33-.18,3.5-.14,1.19,.04,1.92,.72,1.93,1.92,0,1.28-.77,1.93-2.03,2-.53,.03-1.07,0-2.04,0Z"/><path class="cls-3" d="M16.71,98.79c-1.18-.17-2.14-.62-2.06-1.98,.07-1.24,.82-1.97,2.09-1.92,1.21,.05,2.04,.66,2.05,1.98,0,1.37-.92,1.79-2.08,1.92Z"/><path class="cls-3" d="M6.65,58.14c-1.3,0-2.06-.56-2.03-1.9,.03-1.36,.91-1.84,2.12-1.82,1.18,.02,1.99,.67,1.98,1.83,0,1.23-.8,1.9-2.07,1.89Z"/><path class="cls-1" d="M68.6,67.67c-13.66,0-27.31,0-40.97,0-3.88,0-5.82-1.99-5.82-5.86,.01-16.75,0-33.5,0-50.25,0-1.07-.12-2.2,.17-3.2,.64-2.15,2.22-3.37,4.48-3.56,1.12-.09,2.26-.05,3.38-.05,26.35,0,52.69,0,79.04,0,4.33,0,6.16,1.82,6.16,6.15,0,17.02,0,34.04,.02,51.06,0,2.07-.51,3.91-2.43,4.9-1,.51-2.25,.73-3.39,.74-13.55,.05-27.1,.03-40.65,.03v.04Zm1.83-9.6l.47-.24c1.27,.87,2.59,1.67,3.81,2.61,1.07,.83,2.01,.72,2.85-.18,.77-.82,.42-2.25-.65-3.04-1.86-1.36-3.77-2.66-5.6-4.06-.42-.32-.87-.91-.87-1.39-.06-3.7-.02-7.41,0-11.11,0-.19,.16-.37,.34-.75,.57,.29,1.08,.52,1.57,.8,2.52,1.44,4.97,2.99,7.56,4.29,1.3,.65,1.82,1.53,1.94,2.85,.19,2.14,.38,4.28,.64,6.41,.19,1.56,1.76,2.49,2.87,1.59,.57-.46,.84-1.54,.87-2.35,.05-1.49-.19-2.99-.33-4.89,1.69,.9,2.85,1.55,4.04,2.15,1.07,.54,2.01,.38,2.6-.73,.57-1.07,.34-1.93-.77-2.57-1.18-.67-2.3-1.43-3.86-2.41,1.79-.82,3.18-1.46,4.58-2.1,1.21-.55,1.93-1.81,1.43-2.66-.65-1.1-1.52-1.56-2.84-.93-1.94,.93-3.95,1.69-5.88,2.63-1.08,.52-2,.53-3.03-.09-2.3-1.39-4.64-2.69-6.96-4.05-.84-.49-1.64-1.04-2.73-1.74,3.63-2.08,6.91-4.01,10.27-5.81,.54-.29,1.48-.18,2.1,.07,2.04,.81,4,1.85,6.06,2.61,.71,.26,1.71,.12,2.42-.18,.38-.17,.74-1.19,.58-1.63-.24-.67-.85-1.34-1.48-1.71-1.31-.76-2.74-1.31-4.54-2.14,1.5-.91,2.59-1.55,3.66-2.21,1.17-.72,1.67-2.11,.96-2.97-.83-1.01-1.92-1.04-3.03-.37-1.03,.62-2.07,1.22-3.45,2.03,0-.89-.04-1.41,0-1.91,.09-1.07,.28-2.13,.34-3.2,.09-1.47-.66-2.44-1.91-2.48-1.36-.05-1.87,.79-1.98,2.02-.17,1.98-.42,3.95-.56,5.93-.1,1.44-.5,2.54-1.98,3.19-1.37,.6-2.6,1.49-3.91,2.24-1.74,1-3.48,1.98-5.3,3.01-.16-.41-.3-.6-.3-.8-.02-3.7-.06-7.41,.02-11.11,.01-.52,.53-1.14,.99-1.5,1.73-1.36,3.51-2.66,5.32-3.92,1.13-.79,1.64-1.73,.89-2.99-.6-1.02-1.8-1.05-3.11-.17-1.26,.84-2.51,1.7-4.17,2.81,0-1.8,.2-3.21-.08-4.51-.16-.75-.99-1.65-1.71-1.9-1.01-.35-1.86,.35-2.07,1.48-.11,.57-.03,1.18-.04,1.77,0,.96,0,1.92,0,3.29-1.71-1.21-2.91-2.08-4.14-2.92-1-.69-2.08-1.1-3,.06-.93,1.18-.54,2.19,.61,3.01,1.74,1.24,3.45,2.55,5.23,3.74,.9,.6,1.32,1.26,1.3,2.37-.05,3.33,0,6.66,0,9.99,0,.4-.14,.79-.25,1.37-3.11-1.77-6.01-3.5-8.99-5.07-1.55-.82-2.29-1.84-2.31-3.64-.02-2.03-.38-4.05-.62-6.07-.15-1.2-1.07-1.61-2.08-1.56-1.01,.04-1.72,.7-1.72,1.78,0,.9,.2,1.81,.25,2.71,.05,.9,.01,1.8,.01,2.96-1.38-.75-2.4-1.32-3.43-1.88-1.39-.76-2.55-.61-3.06,.48-.57,1.22-.18,2.15,1.03,2.8,1.14,.62,2.22,1.33,3.63,2.19-1.18,.54-1.96,.87-2.72,1.25-.91,.45-1.91,.82-2.64,1.47-.44,.4-.78,1.42-.57,1.9,.25,.57,1.09,1.06,1.77,1.23,.54,.13,1.25-.2,1.83-.45,1.87-.81,3.69-1.74,5.6-2.48,.59-.23,1.49-.19,2.05,.11,2.65,1.41,5.25,2.93,7.85,4.44,.66,.38,1.26,.85,2.11,1.44-.76,.49-1.24,.82-1.73,1.11-2.6,1.5-5.26,2.91-7.8,4.52-1.07,.68-1.9,.67-2.97,.14-2.02-.99-4.09-1.89-6.16-2.78-1.14-.5-2.2,0-2.5,1.02-.2,.66,.22,1.82,.77,2.29,.82,.71,2,.99,3.01,1.5,.64,.32,1.23,.73,1.98,1.18-1.4,.83-2.65,1.4-3.66,2.25-.56,.47-1.05,1.42-1.01,2.13,.07,1.31,1.33,1.82,2.71,1.19,1.28-.59,2.5-1.31,3.7-1.95,.19,.27,.31,.36,.31,.44-.1,1.39-.24,2.77-.33,4.16-.11,1.69,.52,2.64,1.83,2.68,1.56,.05,1.97-1.02,2.09-2.32,.19-2.14,.3-4.29,.64-6.4,.11-.7,.77-1.38,1.32-1.93,.44-.44,1.07-.7,1.63-1.02,2.63-1.52,5.26-3.04,8.08-4.67,.16,.65,.33,1.04,.34,1.43,.02,3.49,.04,6.98-.03,10.47,0,.48-.4,1.09-.8,1.39-1.82,1.41-3.72,2.72-5.57,4.1-1.55,1.16-1.67,2.41-.4,3.43,.99,.8,1.81,.25,2.63-.29,1.26-.83,2.5-1.69,4.18-2.83,0,1.62-.01,2.72,0,3.82,.02,1.72,.79,2.78,1.99,2.76,1.19-.02,1.94-1.1,1.97-2.84,.02-1.05,0-2.1,0-3.16Zm35.23,5.2h0c.97-.01,1.94,0,2.9-.02,1.2-.02,1.74-.75,1.8-1.84,.06-1.09-.59-1.81-1.61-1.86-2.04-.11-4.08-.08-6.12-.01-1.1,.04-1.82,.72-1.86,1.85-.04,1.18,.78,1.75,1.83,1.86,1.01,.11,2.04,.02,3.06,.02Zm-74.38,0h0c1.02,0,2.11,.22,3.03-.08,.71-.23,1.63-1.08,1.68-1.72,.05-.59-.87-1.76-1.46-1.82-2.11-.24-4.27-.2-6.4-.1-1.08,.05-1.91,.87-1.6,1.95,.2,.7,1.02,1.48,1.73,1.7,.92,.29,2.01,.07,3.03,.07Z"/><path class="cls-2" d="M138.96,51.64c-.65,.05-1.17,.12-1.69,.12-5.48,0-10.96-.03-16.45,.03-1.28,.01-1.83-.31-1.81-1.7,.06-5.47,.05-10.95,0-16.42-.01-1.34,.47-1.74,1.78-1.71,3.6,.07,7.2,.05,10.8,0,1.08-.02,1.71,.34,2.03,1.38,1.7,5.59,3.43,11.17,5.13,16.75,.13,.44,.13,.93,.21,1.56Z"/><path class="cls-2" d="M153.81,94.82c-3.49,.03-6.25-2.65-6.3-6.11-.05-3.57,2.65-6.4,6.17-6.47,3.43-.07,6.3,2.8,6.44,6.26,.11,2.94-2.67,6.55-6.3,6.32Z"/><path class="cls-2" d="M45.11,88.58c-.02-3.44,2.76-6.31,6.13-6.34,3.6-.03,6.44,2.79,6.43,6.38,0,3.39-2.72,6.16-6.07,6.2-3.75,.05-6.47-2.57-6.49-6.24Z"/><path class="cls-4" d="M70.43,58.07c0,1.05,.01,2.11,0,3.16-.03,1.74-.78,2.82-1.97,2.84-1.2,.02-1.97-1.04-1.99-2.76-.01-1.1,0-2.2,0-3.82-1.68,1.14-2.92,2-4.18,2.83-.82,.54-1.64,1.1-2.63,.29-1.27-1.03-1.15-2.28,.4-3.43,1.85-1.38,3.75-2.69,5.57-4.1,.4-.31,.79-.92,.8-1.39,.07-3.49,.05-6.98,.03-10.47,0-.39-.18-.79-.34-1.43-2.82,1.63-5.45,3.14-8.08,4.67-.56,.32-1.19,.57-1.63,1.02-.55,.55-1.2,1.23-1.32,1.93-.34,2.11-.45,4.27-.64,6.4-.12,1.3-.52,2.36-2.09,2.32-1.31-.04-1.94-1-1.83-2.68,.09-1.39,.23-2.77,.33-4.16,0-.08-.11-.17-.31-.44-1.21,.64-2.43,1.36-3.7,1.95-1.38,.63-2.64,.12-2.71-1.19-.04-.71,.45-1.66,1.01-2.13,1.01-.85,2.26-1.42,3.66-2.25-.74-.45-1.34-.86-1.98-1.18-1-.51-2.19-.79-3.01-1.5-.54-.47-.96-1.64-.77-2.29,.31-1.03,1.36-1.51,2.5-1.02,2.07,.89,4.13,1.8,6.16,2.78,1.07,.52,1.9,.54,2.97-.14,2.53-1.61,5.19-3.02,7.8-4.52,.5-.29,.97-.62,1.73-1.11-.85-.58-1.46-1.06-2.11-1.44-2.6-1.51-5.19-3.04-7.85-4.44-.56-.3-1.46-.33-2.05-.11-1.9,.73-3.72,1.67-5.6,2.48-.58,.25-1.29,.58-1.83,.45-.67-.16-1.52-.65-1.77-1.23-.21-.48,.12-1.51,.57-1.9,.73-.66,1.73-1.02,2.64-1.47,.76-.38,1.54-.71,2.72-1.25-1.41-.86-2.5-1.57-3.63-2.19-1.21-.65-1.59-1.58-1.03-2.8,.51-1.09,1.67-1.24,3.06-.48,1.03,.56,2.06,1.13,3.43,1.88,0-1.16,.04-2.06-.01-2.96-.05-.91-.25-1.81-.25-2.71,0-1.08,.71-1.74,1.72-1.78,1.01-.04,1.93,.36,2.08,1.56,.25,2.02,.6,4.05,.62,6.07,.02,1.81,.75,2.83,2.31,3.64,2.98,1.57,5.88,3.3,8.99,5.07,.11-.58,.25-.97,.25-1.37,.01-3.33-.04-6.66,0-9.99,.02-1.1-.4-1.77-1.3-2.37-1.78-1.18-3.48-2.49-5.23-3.74-1.15-.82-1.54-1.83-.61-3.01,.92-1.16,1.99-.75,3-.06,1.23,.84,2.43,1.72,4.14,2.92,0-1.37,0-2.33,0-3.29,0-.59-.07-1.19,.04-1.77,.21-1.13,1.06-1.83,2.07-1.48,.73,.25,1.55,1.16,1.71,1.9,.28,1.3,.08,2.71,.08,4.51,1.65-1.12,2.9-1.97,4.17-2.81,1.31-.87,2.51-.84,3.11,.17,.75,1.26,.24,2.2-.89,2.99-1.8,1.26-3.58,2.56-5.32,3.92-.46,.36-.98,.99-.99,1.5-.08,3.7-.04,7.41-.02,11.11,0,.19,.14,.38,.3,.8,1.82-1.03,3.56-2.02,5.3-3.01,1.3-.75,2.54-1.64,3.91-2.24,1.48-.65,1.88-1.75,1.98-3.19,.14-1.98,.38-3.95,.56-5.93,.11-1.23,.62-2.07,1.98-2.02,1.26,.05,2,1.01,1.91,2.48-.06,1.07-.25,2.13-.34,3.2-.04,.51,0,1.02,0,1.91,1.38-.81,2.43-1.41,3.45-2.03,1.12-.68,2.2-.64,3.03,.37,.72,.87,.21,2.25-.96,2.97-1.07,.66-2.16,1.31-3.66,2.21,1.8,.83,3.23,1.39,4.54,2.14,.63,.36,1.24,1.04,1.48,1.71,.16,.44-.2,1.46-.58,1.63-.71,.31-1.71,.44-2.42,.18-2.06-.76-4.01-1.8-6.06-2.61-.63-.25-1.56-.36-2.1-.07-3.35,1.8-6.63,3.73-10.27,5.81,1.09,.7,1.9,1.25,2.73,1.74,2.31,1.36,4.66,2.66,6.96,4.05,1.03,.63,1.95,.62,3.03,.09,1.93-.93,3.95-1.7,5.88-2.63,1.32-.63,2.19-.16,2.84,.93,.5,.85-.22,2.1-1.43,2.66-1.39,.64-2.79,1.28-4.58,2.1,1.55,.98,2.68,1.74,3.86,2.41,1.11,.64,1.34,1.5,.77,2.57-.59,1.11-1.53,1.27-2.6,.73-1.19-.6-2.35-1.25-4.04-2.15,.15,1.9,.38,3.4,.33,4.89-.03,.81-.3,1.89-.87,2.35-1.11,.9-2.68-.03-2.87-1.59-.26-2.13-.45-4.27-.64-6.41-.12-1.32-.63-2.2-1.94-2.85-2.59-1.29-5.04-2.85-7.56-4.29-.49-.28-1-.51-1.57-.8-.17,.38-.33,.56-.34,.75-.03,3.7-.07,7.41,0,11.11,0,.47,.46,1.07,.87,1.39,1.83,1.4,3.74,2.7,5.6,4.06,1.07,.78,1.42,2.22,.65,3.04-.84,.9-1.78,1.01-2.85,.18-1.21-.94-2.53-1.75-3.81-2.61l-.47,.24Z"/><path class="cls-5" d="M105.66,63.26c-1.02,0-2.05,.08-3.06-.02-1.05-.11-1.87-.68-1.83-1.86,.04-1.13,.76-1.81,1.86-1.85,2.04-.07,4.09-.09,6.12,.01,1.02,.05,1.67,.77,1.61,1.86-.06,1.1-.6,1.83-1.8,1.84-.97,.01-1.94,0-2.9,0h0Z"/><path class="cls-3" d="M31.28,63.27c-1.02,0-2.1,.22-3.03-.07-.71-.22-1.53-1-1.73-1.7-.31-1.08,.52-1.9,1.6-1.95,2.13-.1,4.29-.14,6.4,.1,.59,.07,1.51,1.23,1.46,1.82-.05,.64-.97,1.49-1.68,1.72-.92,.3-2.01,.07-3.03,.07h0Z"/></g></g></svg>