<?xml version="1.0" encoding="UTF-8"?><svg id="_層_2" xmlns="http://www.w3.org/2000/svg" viewBox="0 0 133.01 132.87"><defs><style>.cls-1,.cls-2{fill:#fff;}.cls-3{fill:#d39d5c;}.cls-4,.cls-5{fill:#4a221a;}.cls-2,.cls-5{stroke:#4a221a;stroke-miterlimit:10;stroke-width:2px;}</style></defs><g id="_層_1-2"><g><path class="cls-2" d="M123.14,119.23c0-.57,0-1.08,0-1.6,0-21.13,0-42.25,0-63.38,0-.32-.05-.66,.05-.95,.1-.29,.3-.61,.56-.78,.59-.38,1.25-.65,1.85-.99,3.04-1.74,4.75-4.4,4.94-7.84,.19-3.46,.08-6.95,.04-10.42,0-.5-.2-1.17-.56-1.48-4.11-3.54-8.27-7.03-12.43-10.53-3.32-2.79-6.68-5.54-9.98-8.36-.41-.35-.73-1.05-.75-1.59-.07-2.71-.04-5.43-.03-8.14,0-1.93-.24-2.17-2.2-2.17-23.8,0-47.6,.02-71.4,.02-2.24,0-4.48-.03-6.72-.01-1.39,.01-1.76,.38-1.77,1.77-.02,2.91,0,5.83-.03,8.75,0,.33-.04,.76-.24,.96-1.38,1.34-2.8,2.64-4.24,3.93-3.61,3.22-7.24,6.42-10.85,9.65-2.07,1.85-4.09,3.76-6.18,5.59-.54,.47-.82,.93-.82,1.64,.02,3.15,0,6.31,.02,9.46,.03,4.36,2.09,7.48,5.99,9.33,1.12,.54,1.51,1.16,1.5,2.41-.04,20.91-.03,41.82-.03,62.72,0,.7,0,1.4,0,2.18-1.07,0-1.94,.02-2.82,0-2.51-.08-4.96,2.04-5.74,4.32-1.4,4.13,2.05,8.16,5.89,8.15,39.56-.07,79.12-.04,118.69-.04,1.78,0,3.27-.57,4.46-1.91,3.16-3.57,1.55-9.08-2.83-10.24-1.35-.36-2.81-.3-4.39-.44Z"/><path class="cls-5" d="M123.14,119.23c1.57,.15,3.03,.09,4.39,.44,4.38,1.16,5.99,6.67,2.83,10.24-1.19,1.34-2.68,1.91-4.46,1.91-39.56,0-79.12-.03-118.69,.04-3.84,0-7.29-4.02-5.89-8.15,.77-2.28,3.23-4.4,5.74-4.32,.87,.03,1.75,0,2.82,0,0-.78,0-1.48,0-2.18,0-20.91-.01-41.82,.03-62.72,0-1.25-.38-1.87-1.5-2.41-3.9-1.86-5.95-4.98-5.99-9.33-.02-3.15,0-6.31-.02-9.46,0-.71,.28-1.17,.82-1.64,2.09-1.83,4.11-3.74,6.18-5.59,3.61-3.23,7.24-6.43,10.85-9.65,1.44-1.28,2.86-2.59,4.24-3.93,.2-.2,.24-.63,.24-.96,.02-2.91,0-5.83,.03-8.75,.01-1.39,.38-1.76,1.77-1.77,2.24-.02,4.48,.01,6.72,.01,23.8,0,47.6-.01,71.4-.02,1.96,0,2.2,.24,2.2,2.17,0,2.71-.04,5.43,.03,8.14,.02,.54,.33,1.24,.75,1.59,3.29,2.82,6.65,5.57,9.98,8.36,4.16,3.49,8.31,6.98,12.43,10.53,.36,.31,.55,.98,.56,1.48,.04,3.47,.14,6.96-.04,10.42-.19,3.44-1.9,6.11-4.94,7.84-.61,.35-1.27,.62-1.85,.99-.25,.16-.46,.48-.56,.78-.1,.29-.05,.63-.05,.95,0,21.13,0,42.25,0,63.38,0,.52,0,1.03,0,1.6ZM24.52,47.58c-2.81,4.64-6.99,6.05-11.96,5.88V119.31H120.48c.02-.36,.04-.63,.04-.9,0-21.24,.01-42.49,.02-63.73,0-.16,0-.32,0-.48,.03-.61-.08-.81-.85-.78-4.73,.23-8.44-1.66-11.08-5.6-4.34,7.48-16.06,7.69-20.88-.25-3.45,6.69-15.36,8.97-21.11,0-1.7,3.38-5.64,5.84-10.43,5.88-4.55,.04-8.06-1.99-10.58-5.83-2.49,3.91-6,5.82-10.47,5.82-4.51,0-8.09-1.89-10.62-5.86Zm41.86,81.65c15.96,0,31.92,0,47.88,0,3.84,0,7.68,.08,11.52-.06,.96-.03,2.16-.54,2.76-1.25,.92-1.07,1.29-2.52,.4-3.93-.81-1.29-1.88-2.04-3.51-2.02-5.56,.05-11.12,.02-16.68,.02-33.56,0-67.12,0-100.68,.01-.7,0-1.46,.02-2.09,.27-1.59,.63-2.71,2.53-2.35,3.85,.54,1.99,1.76,3.14,3.83,3.13,19.64-.04,39.28-.02,58.92-.02ZM27.41,11.46H104.14V3.69H27.41v7.77Zm19.79,20.11c.3,.05,.45,.1,.61,.1,5.52,0,11.03-.01,16.55,.02,.87,0,.96-.41,.96-1.11-.02-3.91,0-7.81,0-11.72,0-1.54,0-3.07,0-4.65h-13.14l-4.98,17.37ZM80.85,14.26h-13.13c0,5.57,0,11.04,0,16.5,0,.9,.54,.91,1.19,.91,3.64,0,7.28,0,10.92,0,1.95,0,3.9,0,6.02,0-1.69-5.9-3.34-11.66-4.98-17.4Zm-33.78,20.09c0,2.67,0,5.21,0,7.76,0,.32-.06,.66,.03,.95,.35,1.19,.55,2.47,1.15,3.53,1.38,2.42,3.61,3.61,6.37,4.12,3.29,.61,7.39-.93,9.27-3.69,1.25-1.83,1.41-3.86,1.43-5.95,.02-2.22,0-4.44,0-6.72h-18.26Zm-42.02-.02c0,3.07-.04,6.02,.03,8.97,.02,.84,.24,1.71,.56,2.5,1.5,3.75,6.72,5.74,10.32,4.86,2.72-.67,5.03-1.87,6.28-4.43,.52-1.06,.76-2.33,.81-3.52,.11-2.77,.04-5.55,.04-8.37H5.05Zm102.28,.06h-18.04c0,3.16-.09,6.23,.04,9.29,.07,1.57,.76,3.02,1.91,4.18,2.7,2.73,6.03,3.66,9.65,2.68,3.81-1.03,6.04-3.42,6.38-6.74,.32-3.07,.07-6.21,.07-9.41Zm-39.17-.04c0,2.77,.04,5.43-.01,8.1-.05,2.34,.81,4.26,2.52,5.82,2.72,2.49,5.88,3.15,9.38,2.14,2.98-.85,5.15-2.64,5.95-5.74,.24-.92,.19-1.91,.2-2.88,.02-2.46,0-4.93,0-7.45h-18.05Zm41.79-.02c0,3.15-.11,6.19,.04,9.21,.1,2.07,1.11,3.85,2.79,5.13,2.51,1.92,5.35,2.68,8.46,1.95,2.85-.67,5.86-2.74,6.46-5.93,.29-1.54,.23-3.15,.26-4.73,.04-1.86,0-3.72,0-5.61h-18.03Zm-83.79,.02c0,3.29,0,6.51,0,9.73,0,.19,.1,.38,.15,.57,.77,2.67,2.54,4.38,5.06,5.47,4.79,2.07,11.22-.22,12.51-5.6,.5-2.08,.24-4.34,.3-6.51,.03-1.22,0-2.43,0-3.66H26.16Zm79.92-2.68c-.21-.39-.33-.67-.5-.92-1.59-2.37-3.17-4.74-4.77-7.11-2.04-3.02-4.08-6.03-6.14-9.03-.15-.21-.48-.43-.73-.43-3.39-.03-6.78-.02-10.27-.02,.13,.56,.23,1.05,.36,1.52,1.43,4.99,2.9,9.98,4.26,14.99,.21,.79,.45,1.01,1.24,1.01,3.92-.04,7.83-.02,11.75-.02,1.55,0,3.09,0,4.8,0ZM49.46,14.16c-3.63,0-6.98,0-10.34,.02-.25,0-.59,.17-.74,.37-.48,.65-.88,1.37-1.33,2.04-2.19,3.24-4.4,6.47-6.59,9.71-1.18,1.74-2.34,3.48-3.63,5.39,5.81,0,11.39,.01,16.98-.04,.3,0,.75-.47,.86-.81,.87-2.88,1.67-5.77,2.49-8.66,.75-2.63,1.51-5.26,2.31-8.02Zm-14.07,.02c-2.9,0-5.54-.02-8.17,.02-.39,0-.85,.21-1.15,.47-1.11,.95-2.17,1.97-3.26,2.96-1.73,1.57-3.45,3.14-5.19,4.7-3.42,3.06-6.85,6.1-10.3,9.17,.14,.1,.2,.17,.26,.17,5.19,0,10.38,.01,15.58,0,.27,0,.66-.14,.8-.35,.7-.98,1.33-2.02,2-3.02,1.78-2.69,3.56-5.39,5.35-8.07,1.3-1.95,2.62-3.89,4.08-6.05Zm62.37,0c.14,.33,.21,.59,.36,.8,.97,1.42,1.96,2.83,2.92,4.26,2.58,3.87,5.13,7.76,7.75,11.61,.28,.41,.91,.8,1.38,.81,4.11,.07,8.23,.04,12.35,.05,.97,0,1.94,0,3.17,0-1.44-1.26-2.63-2.33-3.86-3.36-2.23-1.87-4.5-3.71-6.73-5.57-3.07-2.57-6.11-5.16-9.19-7.72-.43-.36-.96-.81-1.46-.83-2.19-.09-4.39-.04-6.69-.04Z"/><path class="cls-2" d="M24.52,47.58c2.53,3.97,6.11,5.86,10.62,5.86,4.47,0,7.99-1.91,10.47-5.82,2.53,3.84,6.03,5.87,10.58,5.83,4.79-.04,8.72-2.5,10.43-5.88,5.75,8.97,17.66,6.7,21.11,0,4.82,7.94,16.54,7.72,20.88,.25,2.63,3.95,6.34,5.83,11.08,5.6,.77-.04,.88,.17,.85,.78,0,.16,0,.32,0,.48,0,21.24,0,42.49-.02,63.73,0,.27-.03,.54-.04,.9H12.56V53.46c4.97,.16,9.15-1.24,11.96-5.88Zm42.23,65.58c14.04,0,28.09,0,42.13,0,.36,0,.73,.05,1.08-.02,.83-.17,1.44-.52,1.43-1.55-.02-12.98-.02-25.96,0-38.94,0-1.1-.44-1.44-1.51-1.44-6.2,.03-12.39,.02-18.59,0-.38,0-.81-.03-1.13-.2-2.73-1.52-5.47-3.04-8.16-4.63-1.57-.93-3.03-2.05-4.59-3-2.73-1.65-5.54-3.16-8.22-4.89-1.31-.84-2.29-.72-3.57,.03-3.71,2.17-7.5,4.2-11.26,6.29-2.77,1.54-5.52,3.1-8.29,4.64-1.64,.92-3.21,1.85-5.27,1.81-5.83-.12-11.67-.05-17.51-.06-1.49,0-1.68,.18-1.68,1.64,0,4.79,0,9.58,0,14.38,0,8.07,.02,16.14-.02,24.2,0,1.07,.51,1.55,1.42,1.67,.8,.11,1.63,.05,2.45,.05,13.76,0,27.53,0,41.29,0Z"/><path class="cls-2" d="M66.38,129.23c-19.64,0-39.28-.02-58.92,.02-2.07,0-3.28-1.14-3.83-3.13-.36-1.32,.76-3.22,2.35-3.85,.63-.25,1.39-.27,2.09-.27,33.56-.01,67.12-.01,100.68-.01,5.56,0,11.12,.03,16.68-.02,1.64-.02,2.7,.73,3.51,2.02,.88,1.41,.52,2.86-.4,3.93-.61,.7-1.81,1.21-2.76,1.25-3.83,.14-7.68,.06-11.52,.06-15.96,0-31.92,0-47.88,0Z"/><path class="cls-2" d="M27.41,11.46V3.69H104.14v7.77H27.41Z"/><path class="cls-2" d="M47.2,31.57l4.98-17.37h13.14c0,1.58,0,3.12,0,4.65,0,3.91-.03,7.81,0,11.72,0,.71-.09,1.12-.96,1.11-5.52-.03-11.03-.01-16.55-.02-.15,0-.31-.05-.61-.1Z"/><path class="cls-2" d="M80.85,14.26c1.64,5.74,3.3,11.51,4.98,17.4-2.12,0-4.07,0-6.02,0-3.64,0-7.28,0-10.92,0-.65,0-1.19,0-1.19-.91,.02-5.47,0-10.93,0-16.5h13.13Z"/><path class="cls-2" d="M47.07,34.35h18.26c0,2.28,.02,4.5,0,6.72-.02,2.09-.18,4.12-1.43,5.95-1.89,2.76-5.98,4.3-9.27,3.69-2.76-.51-4.99-1.7-6.37-4.12-.6-1.05-.81-2.34-1.15-3.53-.09-.3-.03-.63-.03-.95,0-2.55,0-5.09,0-7.76Z"/><path class="cls-2" d="M5.05,34.33H23.08c0,2.82,.08,5.6-.04,8.37-.05,1.19-.29,2.46-.81,3.52-1.26,2.57-3.56,3.77-6.28,4.43-3.6,.88-8.82-1.11-10.32-4.86-.31-.78-.54-1.66-.56-2.5-.07-2.95-.03-5.89-.03-8.97Z"/><path class="cls-2" d="M107.33,34.39c0,3.2,.25,6.34-.07,9.41-.34,3.32-2.57,5.71-6.38,6.74-3.62,.98-6.94,.05-9.65-2.68-1.15-1.16-1.84-2.61-1.91-4.18-.13-3.06-.04-6.13-.04-9.29h18.04Z"/><path class="cls-2" d="M68.17,34.35h18.05c0,2.52,.02,4.99,0,7.45,0,.96,.04,1.96-.2,2.88-.8,3.09-2.97,4.88-5.95,5.74-3.5,1-6.66,.34-9.38-2.14-1.71-1.56-2.56-3.48-2.52-5.82,.05-2.66,.01-5.33,.01-8.1Z"/><path class="cls-2" d="M109.95,34.33h18.03c0,1.89,.03,3.75,0,5.61-.03,1.58,.03,3.19-.26,4.73-.6,3.19-3.61,5.26-6.46,5.93-3.11,.73-5.95-.03-8.46-1.95-1.68-1.28-2.69-3.06-2.79-5.13-.15-3.02-.04-6.05-.04-9.21Z"/><path class="cls-2" d="M26.16,34.35h18.04c0,1.23,.03,2.44,0,3.66-.06,2.18,.2,4.44-.3,6.51-1.29,5.37-7.72,7.67-12.51,5.6-2.52-1.09-4.29-2.8-5.06-5.47-.05-.19-.15-.38-.15-.57,0-3.22,0-6.45,0-9.73Z"/><path class="cls-2" d="M106.08,31.67c-1.71,0-3.26,0-4.8,0-3.92,0-7.83-.02-11.75,.02-.79,0-1.02-.22-1.24-1.01-1.36-5.01-2.83-9.99-4.26-14.99-.14-.47-.23-.96-.36-1.52,3.49,0,6.88,0,10.27,.02,.25,0,.58,.21,.73,.43,2.06,3,4.1,6.01,6.14,9.03,1.6,2.36,3.18,4.74,4.77,7.11,.17,.25,.29,.53,.5,.92Z"/><path class="cls-2" d="M49.46,14.16c-.79,2.76-1.55,5.39-2.31,8.02-.83,2.89-1.63,5.79-2.49,8.66-.1,.34-.56,.81-.86,.81-5.58,.05-11.17,.04-16.98,.04,1.28-1.91,2.45-3.65,3.63-5.39,2.19-3.24,4.4-6.47,6.59-9.71,.46-.67,.85-1.39,1.33-2.04,.15-.2,.49-.37,.74-.37,3.36-.02,6.71-.02,10.34-.02Z"/><path class="cls-2" d="M35.4,14.18c-1.46,2.16-2.78,4.1-4.08,6.05-1.79,2.69-3.57,5.38-5.35,8.07-.67,1.01-1.3,2.04-2,3.02-.15,.21-.53,.34-.8,.35-5.19,.02-10.38,.01-15.58,0-.06,0-.12-.08-.26-.17,3.45-3.07,6.88-6.11,10.3-9.17,1.74-1.55,3.46-3.13,5.19-4.7,1.09-.99,2.14-2,3.26-2.96,.3-.26,.76-.46,1.15-.47,2.63-.04,5.27-.02,8.17-.02Z"/><path class="cls-2" d="M97.77,14.17c2.3,0,4.5-.05,6.69,.04,.5,.02,1.03,.47,1.46,.83,3.07,2.56,6.12,5.16,9.19,7.72,2.23,1.87,4.5,3.7,6.73,5.57,1.23,1.03,2.42,2.1,3.86,3.36-1.23,0-2.2,0-3.17,0-4.12,0-8.23,.02-12.35-.05-.47,0-1.1-.4-1.38-.81-2.62-3.85-5.17-7.74-7.75-11.61-.95-1.43-1.95-2.83-2.92-4.26-.14-.21-.22-.47-.36-.8Z"/><path class="cls-4" d="M66.75,113.16c-13.76,0-27.53,0-41.29,0-.82,0-1.64,.05-2.45-.05-.91-.12-1.43-.6-1.42-1.67,.04-8.07,.02-16.14,.02-24.2,0-4.79,0-9.58,0-14.38,0-1.46,.19-1.64,1.68-1.64,5.84,0,11.67-.06,17.51,.06,2.06,.04,3.62-.89,5.27-1.81,2.76-1.54,5.52-3.1,8.29-4.64,3.76-2.09,7.55-4.12,11.26-6.29,1.28-.75,2.26-.87,3.57-.03,2.68,1.72,5.49,3.23,8.22,4.89,1.56,.95,3.02,2.07,4.59,3,2.69,1.59,5.42,3.11,8.16,4.63,.32,.18,.75,.2,1.13,.2,6.2,.01,12.39,.03,18.59,0,1.07,0,1.51,.33,1.51,1.44-.02,12.98-.02,25.96,0,38.94,0,1.04-.6,1.39-1.43,1.55-.35,.07-.72,.02-1.08,.02-14.04,0-28.09,0-42.13,0Zm-42.45-2.71H108.68v-36.56H24.3v36.56Zm60.3-39.27l.06-.22c-2.24-1.33-4.49-2.65-6.71-4.01-3.08-1.87-6.13-3.78-9.22-5.63-.5-.3-1.27-.69-1.67-.51-1.62,.77-3.13,1.77-4.71,2.64-3.3,1.82-6.63,3.6-9.93,5.41-1.28,.7-2.53,1.45-4.03,2.31h36.21Z"/><path class="cls-1" d="M24.3,110.45v-36.56H108.68v36.56H24.3Zm63.58-21.06c.48,.6,.92,1.07,1.28,1.6,1.89,2.84,3.76,5.68,5.63,8.54,.42,.65,1.05,1.21,1.72,.82,.49-.29,.91-1.12,.92-1.72,.07-4.47,.03-8.94,.03-13.41,0-.2,.05-.42-.02-.59-.26-.7-.61-1.34-1.53-1.18-.78,.14-1.17,.57-1.07,1.42,.06,.51,.01,1.04,.01,1.56,0,2.65,0,5.31,0,7.96-1.39-1.57-2.57-3.2-3.68-4.87-1.14-1.71-2.17-3.5-3.38-5.15-.35-.48-1.16-.7-1.8-.83-.16-.03-.7,.73-.7,1.14-.05,4.83-.06,9.66,0,14.49,0,.42,.56,1.22,.75,1.19,.57-.09,1.22-.4,1.6-.83,.28-.32,.23-.97,.24-1.47,.02-2.84,0-5.67,0-8.65Zm-45.16,11.04l.13,.32c1.1-.43,2.38-.63,3.26-1.33,4.04-3.24,4.33-10.08,1.05-13.9-2.16-2.52-6.88-3.18-9.24-.25-2.34,2.91-2.89,6.13-1.92,9.72,.84,3.11,3.35,5.75,6.71,5.44Zm30.05-14.37c2.56,0,5-.01,7.43,0,1.08,0,1.34-.78,1.4-1.55,.07-.86-.58-1.09-1.36-1.08-2.88,.02-5.75,.04-8.63,0-1.05-.01-1.51,.34-1.5,1.45,.04,4.71,.02,9.41,0,14.12,0,.99,.34,1.45,1.4,1.43,2.92-.04,5.84-.05,8.75,0,.82,.02,1.3-.37,1.31-1.02,0-.5-.36-1.08-.73-1.47-.2-.21-.75-.13-1.14-.14-2.3-.01-4.6,0-6.9,0v-4.63c.14-.07,.2-.13,.27-.13,1.08-.02,2.17,.08,3.23-.08,.6-.09,1.43-.46,1.65-.94,.6-1.25-.38-2.07-1.97-1.85-1.05,.15-2.12,.15-3.21,.22v-4.36Zm-16.6,7.45c.9,.08,1.6,.2,2.29,.19,.74,0,1.48-.17,2.22-.19,3.01-.08,4.67-1.52,5.14-4.49,.42-2.61-1.22-5.05-3.85-5.32-2.44-.25-4.92-.22-7.38-.2-.35,0-.98,.64-.98,1-.07,4.95-.04,9.89-.04,14.84,0,.74,.38,1.07,1.11,1.09,.95,.02,1.49-.52,1.49-1.56,0-1.75,0-3.49,0-5.36Z"/><path class="cls-2" d="M84.6,71.19H48.39c1.5-.86,2.75-1.61,4.03-2.31,3.31-1.81,6.63-3.59,9.93-5.41,1.58-.87,3.09-1.87,4.71-2.64,.39-.19,1.17,.21,1.67,.51,3.09,1.85,6.14,3.76,9.22,5.63,2.23,1.35,4.47,2.67,6.71,4.01l-.06,.22Z"/><path class="cls-3" d="M87.88,89.39c0,2.98,0,5.81,0,8.65,0,.5,.04,1.15-.24,1.47-.38,.43-1.02,.75-1.6,.83-.2,.03-.75-.77-.75-1.19-.05-4.83-.05-9.66,0-14.49,0-.4,.54-1.17,.7-1.14,.64,.13,1.45,.35,1.8,.83,1.22,1.65,2.24,3.45,3.38,5.15,1.12,1.67,2.29,3.3,3.68,4.87,0-2.65,0-5.31,0-7.96,0-.52,.05-1.04-.01-1.56-.1-.84,.3-1.28,1.07-1.42,.92-.16,1.27,.47,1.53,1.18,.06,.18,.02,.39,.02,.59,0,4.47,.04,8.94-.03,13.41,0,.6-.43,1.43-.92,1.72-.67,.4-1.3-.17-1.72-.82-1.86-2.85-3.74-5.7-5.63-8.54-.35-.53-.8-1.01-1.28-1.6Z"/><path class="cls-3" d="M42.72,100.43c-3.36,.32-5.87-2.33-6.71-5.44-.97-3.59-.43-6.81,1.92-9.72,2.36-2.93,7.08-2.27,9.24,.25,3.28,3.82,2.99,10.66-1.05,13.9-.88,.7-2.16,.9-3.26,1.33l-.13-.32Zm-4.57-8.68c-.01,1.59,.57,3.64,1.56,4.83,1.2,1.44,3.56,2.21,5.23,.37,2.45-2.69,2.6-7.49-.22-10.09-1.28-1.18-3.33-1.37-4.6,0-1.29,1.39-1.84,3.05-1.96,4.89Z"/><path class="cls-3" d="M72.77,86.06v4.36c1.09-.07,2.16-.07,3.21-.22,1.59-.22,2.56,.59,1.97,1.85-.23,.48-1.05,.85-1.65,.94-1.06,.16-2.15,.06-3.23,.08-.07,0-.14,.06-.27,.13v4.63c2.3,0,4.6,0,6.9,0,.39,0,.93-.08,1.14,.14,.37,.39,.74,.97,.73,1.47-.01,.65-.48,1.03-1.31,1.02-2.92-.06-5.84-.05-8.75,0-1.05,.01-1.4-.44-1.4-1.43,.02-4.71,.04-9.41,0-14.12,0-1.11,.45-1.47,1.5-1.45,2.88,.03,5.75,.02,8.63,0,.79,0,1.43,.22,1.36,1.08-.06,.77-.32,1.56-1.4,1.55-2.43-.02-4.87,0-7.43,0Z"/><path class="cls-3" d="M56.17,93.52c0,1.86,0,3.61,0,5.36,0,1.04-.55,1.58-1.49,1.56-.73-.01-1.11-.35-1.11-1.09,0-4.95-.02-9.89,.04-14.84,0-.35,.64-.99,.98-1,2.46-.02,4.94-.05,7.38,.2,2.62,.27,4.26,2.71,3.85,5.32-.47,2.97-2.13,4.41-5.14,4.49-.74,.02-1.48,.19-2.22,.19-.7,0-1.39-.11-2.29-.19Zm.1-7.68v4.99c1.97,.46,3.88,.3,5.79-.35,1.05-.36,1.39-1.24,1.26-2.03-.1-.68-.74-1.68-1.32-1.82-1.82-.44-3.72-.54-5.73-.78Z"/><path class="cls-1" d="M38.15,91.75c.12-1.84,.67-3.5,1.96-4.89,1.27-1.37,3.32-1.17,4.6,0,2.82,2.6,2.67,7.39,.22,10.09-1.67,1.84-4.03,1.07-5.23-.37-.99-1.19-1.57-3.24-1.56-4.83Z"/><path class="cls-1" d="M56.27,85.84c2.01,.25,3.91,.35,5.73,.78,.58,.14,1.22,1.14,1.32,1.82,.12,.8-.22,1.68-1.26,2.03-1.91,.65-3.82,.82-5.79,.35v-4.99Z"/></g></g></svg>