<?xml version="1.0" encoding="UTF-8"?><svg id="_層_2" xmlns="http://www.w3.org/2000/svg" viewBox="0 0 94.61 169"><defs><style>.cls-1{fill:#fff;}.cls-2{fill:#ff681c;}.cls-3{fill:#42210b;}</style></defs><g id="_層_1-2"><g><path class="cls-1" d="M0,45.94V0c31.54,0,63.08,0,94.61,0,0,56.33,0,112.67,0,169-8.63,0-17.25,0-25.88,0,.19-.23,.35-.5,.59-.67,.93-.64,1.97-1.14,2.82-1.87,1.63-1.42,3-3.04,3.03-5.39,0-.38,.2-.76,.3-1.15,.11-.44,.28-.88,.28-1.32,.01-32.28,.01-64.55,.01-96.83,0-.26-.06-.51-.04-.77,.03-.46-.04-1,.17-1.38,1.5-2.83,3.06-5.63,4.61-8.44,1.25-2.25,2.54-4.48,3.79-6.74,1.58-2.85,3.16-5.7,4.69-8.58,1.43-2.7,3.1-5.27,4.04-8.22,.73-2.29,1.15-4.64,1.02-6.98-.16-2.9-.65-5.76-1.99-8.47-1.39-2.79-3.19-5.19-5.61-7.09-1.26-.99-2.7-1.77-4.13-2.51-1.17-.61-2.41-1.28-3.69-1.45-2.58-.35-5.18-.7-7.83-.33-1.82,.25-3.63,.48-5.29,1.24-1.33,.61-2.54,1.49-3.79,2.27-2.8,1.75-4.94,4.14-6.4,7.06-.95,1.91-1.86,3.88-2.04,6.07-.14,1.7-.4,3.4-.4,5.1,0,1.06,.28,2.15,.61,3.18,.58,1.86,1.19,3.72,1.97,5.5,.63,1.45,1.54,2.77,2.31,4.16,.31,.57,.11,.94-.55,.99-.65,.05-1.31,.03-1.97,.04-13.22,0-26.45-.02-39.67,.02-2.6,0-5.18-.25-7.79,.63-1.92,.65-3.53,1.51-4.82,3.03-.25,.3-.36,.73-.62,1.02-.93,1.02-1.57,2.12-1.49,3.58,.03,.53-.16,1.1-.85,1.22Z"/><path class="cls-3" d="M0,45.94c.69-.12,.87-.69,.85-1.22-.07-1.45,.57-2.56,1.49-3.58,.26-.29,.36-.72,.62-1.02,1.28-1.52,2.9-2.38,4.82-3.03,2.6-.88,5.19-.62,7.79-.63,13.22-.04,26.45-.02,39.67-.02,.66,0,1.32,.02,1.97-.04,.65-.05,.86-.42,.55-.99-.76-1.39-1.67-2.71-2.31-4.16-.78-1.78-1.39-3.64-1.97-5.5-.32-1.03-.61-2.12-.61-3.18,0-1.7,.26-3.4,.4-5.1,.18-2.19,1.08-4.17,2.04-6.07,1.46-2.92,3.6-5.32,6.4-7.06,1.25-.78,2.46-1.67,3.79-2.27,1.66-.75,3.47-.99,5.29-1.24,2.65-.37,5.25-.02,7.83,.33,1.27,.17,2.51,.84,3.69,1.45,1.43,.74,2.87,1.52,4.13,2.51,2.42,1.9,4.22,4.3,5.61,7.09,1.34,2.71,1.83,5.57,1.99,8.47,.13,2.34-.29,4.69-1.02,6.98-.94,2.96-2.61,5.53-4.04,8.22-1.53,2.88-3.11,5.73-4.69,8.58-1.25,2.25-2.54,4.48-3.79,6.74-1.56,2.8-3.11,5.61-4.61,8.44-.2,.38-.14,.91-.17,1.38-.02,.25,.04,.51,.04,.77,0,32.28,0,64.55-.01,96.83,0,.44-.17,.88-.28,1.32-.09,.39-.29,.77-.3,1.15-.03,2.36-1.4,3.98-3.03,5.39-.85,.73-1.89,1.23-2.82,1.87-.24,.16-.4,.44-.59,.67H7.2c-.14-.22-.24-.51-.44-.64-.51-.35-1.09-.6-1.6-.95-2.4-1.61-4.26-3.57-4.32-6.7-.01-.54-.2-1.02-.83-1.14V45.94Zm4.97,50.21c0,13.48,0,26.96,0,40.45,0,1.29,.13,1.41,1.43,1.41,21.05,0,42.1,0,63.15,0,1.41,0,1.52-.1,1.52-1.49,0-24.59,0-49.19,0-73.78,0-.57,.11-1.14,.08-1.71-.05-.69-.08-1.41-.34-2.04-.38-.94-.96-1.8-1.43-2.71-.72-1.39-1.66-2.13-3.41-2.12-19.94,.06-39.87,.04-59.81,.02-.81,0-1.17,.32-1.18,1.09,0,.26-.01,.51-.01,.77,0,13.37,0,26.73,0,40.1Zm32.99,46.57c-10.6,0-21.19,0-31.79,0-1.04,0-1.2,.14-1.2,1.08,0,5.14,.04,10.28-.02,15.42-.02,1.34,.54,2.33,1.29,3.32,1.34,1.75,3.32,2.09,5.26,2.1,16.37,.06,32.73,.04,49.1,.02,2.27,0,4.53,.22,6.79-.53,1.6-.53,3.61-2.45,3.62-4.15,.05-5.43,.04-10.85,.07-16.28,0-.9-.52-.99-1.24-.99-10.63,.01-21.25,0-31.88,0Zm-2.74-92.79h0c9.54,0,19.08,0,28.62,0,.23,0,.46,.01,.69,0,.84-.06,1.07-.46,.66-1.19-1.18-2.1-2.35-4.21-3.56-6.29-.39-.68-.77-1.32-1.8-1.32-16.31,.03-32.62,.02-48.93,.04-1.21,0-2.43,.05-3.48,.91-1.31,1.07-2.46,2.19-2.44,4.05,.01,.89-.02,1.77-.02,2.66,0,1,.15,1.16,1.12,1.16,9.71,0,19.42,0,29.13,0Zm48.64-28.79c.21-5.65-4.68-10.42-10.45-10.39-5.62,.02-10.43,4.75-10.35,10.44,.08,5.63,4.6,10.63,11.04,10.48,4.88-.11,10.06-4.79,9.77-10.53Z"/><path class="cls-1" d="M0,159.57c.63,.12,.82,.6,.83,1.14,.06,3.13,1.92,5.09,4.32,6.7,.52,.34,1.09,.6,1.6,.95,.2,.14,.3,.42,.44,.64H0v-9.43Z"/><path class="cls-1" d="M4.97,96.15c0-13.37,0-26.73,0-40.1,0-.26,0-.51,.01-.77,.01-.78,.37-1.09,1.18-1.09,19.94,.02,39.87,.04,59.81-.02,1.75,0,2.69,.73,3.41,2.12,.47,.91,1.05,1.77,1.43,2.71,.25,.62,.29,1.35,.34,2.04,.04,.56-.08,1.14-.08,1.71,0,24.59,0,49.19,0,73.78,0,1.39-.11,1.49-1.52,1.49-21.05,0-42.1,0-63.15,0-1.29,0-1.43-.12-1.43-1.41,0-13.48,0-26.96,0-40.45Zm32.78-2.71c-.13,.06-.18,.12-.22,.11-1.86-.49-3.72-.99-5.59-1.49-.08-.02-.15-.09-.23-.12-1.22-.44-2.43-.9-3.66-1.3-1.26-.4-2.54-.73-3.81-1.1-.11-.03-.19-.13-.29-.17-.67-.23-1.33-.47-2-.68-.1-.03-.3,.04-.36,.12-.06,.09-.04,.32,.03,.38,.42,.33,.82,.75,1.3,.91,1.25,.43,2.55,.74,3.82,1.11,.14,.04,.26,.13,.39,.17,1.31,.45,2.61,.92,3.92,1.34,1.26,.41,2.55,.73,3.81,1.16,1.15,.39,2.29,.84,3.41,1.33,.5,.22,.97,.56,1.34,.95,.17,.18,.23,.73,.08,.88-.16,.18-.62,.2-.91,.13-.41-.09-.77-.36-1.18-.48-.49-.15-1.01-.2-1.49-.36-1.24-.43-2.47-.94-3.71-1.36-1.57-.54-3.16-1.05-4.76-1.52-.38-.11-.83-.01-1.25-.01,.14,.41,.18,.9,.43,1.21,.35,.43,.86,.73,1.3,1.09,1.19,.96,2.36,1.95,3.59,2.86,.64,.48,.79,.87,.33,1.55-.19,.28-.39,.56-.52,.87-.41,.93-.78,1.88-1.17,2.82-.28,.68-.55,1.36-.86,2.02-.43,.92-.92,1.81-1.34,2.73-.43,.95-.8,1.93-1.2,2.9-.27,.65-.51,1.32-.8,1.96-.44,.94-.95,1.85-1.39,2.79-.42,.92-.77,1.88-1.18,2.81-.34,.77-.73,1.52-1.05,2.3-.12,.29-.09,.64-.13,.96,.35-.11,.86-.1,1.03-.34,1.25-1.72,2.48-3.46,3.64-5.24,1.37-2.09,2.68-4.21,3.99-6.34,1.64-2.66,4.17-4.26,6.77-5.78,1.17-.69,2.4-1.31,3.5-2.1,1.28-.93,2.6-1.88,3.64-3.05,1.13-1.28,2.02-2.78,2.88-4.26,.59-1.01,.98-2.15,1.44-3.24,.37-.88,.72-1.77,1.06-2.66,.71-1.88,1.35-3.8,2.13-5.65,.36-.87,.9-1.69,1.5-2.41,.46-.56,1.15-.92,1.7-1.41,2.12-1.88,4.23-3.77,6.34-5.66,.66-.59,1.31-1.2,1.96-1.81l-.22-.34c-.92,.41-1.84,.82-2.75,1.23-.04,.02-.06,.1-.1,.14-.83,.68-1.62,1.41-2.5,2.01-1.22,.83-2.47,1.62-3.77,2.3-1.07,.55-2.21,1.13-3.37,1.3-2.19,.33-4.37,.48-6.45,1.4-2.44,1.08-4.13,3.73-3.81,6.44,.12,.98-.47,1.37-1.42,1.01-1.17-.45-2.33-.9-3.52-1.28-2.25-.73-4.51-1.41-6.76-2.11-.81-.25-1.63-.47-2.43-.76-1.22-.43-2.41-.95-3.63-1.35-1.23-.4-2.49-.71-3.74-1.06-.11-.03-.2-.1-.31-.14-1.38-.48-2.76-.95-4.14-1.43-.42-.15-.83-.34-1.25-.49-.25-.08-.51-.11-.77-.16-.02,.3-.17,.7-.03,.88,.38,.48,.81,1.05,1.34,1.26,2.12,.82,4.28,1.51,6.43,2.25,.86,.29,1.72,.58,2.59,.85,1.25,.39,2.52,.73,3.76,1.14,2.1,.7,4.21,1.4,6.28,2.19,.66,.25,1.26,.72,1.81,1.18,.42,.35,.23,.74-.24,.91-.29,.1-.65,.17-.92,.08-1.16-.4-2.3-.86-3.45-1.29-.34-.13-.67-.28-1.02-.38-1.24-.37-2.48-.71-3.71-1.08-.13-.04-.23-.18-.36-.23-.36-.14-.73-.28-1.1-.39-1.21-.36-2.42-.7-3.62-1.05-.13-.04-.22-.19-.35-.24-.99-.35-1.98-.69-2.97-1.03-.01,0-.04,.03-.06,.05,.05,.82,.9,1.64,1.84,1.79,.37,.06,.75,.07,1.09,.18,1.7,.54,3.39,1.1,5.07,1.67,1.02,.34,2.04,.69,3.05,1.06,1.17,.42,2.31,.94,3.51,1.27,.77,.21,1.58,.2,2.18,.85,.09,.1,.32,.08,.49,.1,1.46,.23,2.7,.73,3.11,2.41Z"/><path class="cls-1" d="M37.96,142.71c10.63,0,21.25,0,31.88,0,.72,0,1.24,.09,1.24,.99-.03,5.43-.02,10.85-.07,16.28-.01,1.69-2.02,3.62-3.62,4.15-2.25,.75-4.52,.53-6.79,.53-16.37,.02-32.73,.04-49.1-.02-1.94,0-3.93-.35-5.26-2.1-.75-.98-1.31-1.97-1.29-3.32,.07-5.14,.02-10.28,.02-15.42,0-.94,.16-1.08,1.2-1.08,10.6,0,21.19,0,31.79,0Zm.1,1.77c-.84,.25-1.63,.48-2.41,.71-.24,.07-.48,.19-.73,.22-1.56,.15-2.61,1.21-3.48,2.27-.94,1.15-2.07,2.37-1.86,4.12,.02,.18-.21,.39-.3,.6-.12,.28-.33,.6-.28,.87,.24,1.36,.37,2.78,.88,4.04,.71,1.76,2.16,2.94,3.71,4.06,1.36,.98,3.01,.49,4.36,1.24,.1,.05,.28-.02,.41-.05,.69-.14,1.37-.27,2.06-.42,.39-.08,.82-.1,1.15-.29,1.61-.95,3.05-2.1,4.06-3.74,.43-.69,.86-1.33,.79-2.19-.02-.21,.09-.45,.18-.65,.45-1.04,.62-2.07-.04-3.1-.1-.16-.18-.4-.14-.57,.29-1.32-.7-2.15-1.24-3.13-.29-.53-.78-.96-1.24-1.38-.99-.91-2.01-1.72-3.45-1.87-.82-.08-1.61-.47-2.44-.73Z"/><path class="cls-1" d="M35.23,49.92c-9.71,0-19.42,0-29.13,0-.98,0-1.13-.16-1.12-1.16,0-.89,.03-1.77,.02-2.66-.02-1.86,1.13-2.98,2.44-4.05,1.04-.86,2.27-.91,3.48-.91,16.31-.02,32.62,0,48.93-.04,1.03,0,1.41,.64,1.8,1.32,1.21,2.08,2.38,4.19,3.56,6.29,.41,.73,.18,1.13-.66,1.19-.23,.02-.46,0-.69,0-9.54,0-19.08,0-28.62,0h0Z"/><path class="cls-1" d="M83.87,21.13c.29,5.73-4.89,10.41-9.77,10.53-6.43,.15-10.96-4.85-11.04-10.48-.08-5.7,4.73-10.42,10.35-10.44,5.77-.02,10.67,4.74,10.45,10.39Z"/><path class="cls-2" d="M37.75,93.43c-.41-1.67-1.65-2.18-3.11-2.41-.17-.03-.4,0-.49-.1-.6-.65-1.41-.64-2.18-.85-1.19-.33-2.34-.84-3.51-1.27-1.01-.36-2.03-.71-3.05-1.06-1.69-.57-3.38-1.13-5.07-1.67-.35-.11-.73-.13-1.09-.18-.94-.14-1.79-.96-1.84-1.79,.02-.02,.05-.06,.06-.05,.99,.34,1.98,.68,2.97,1.03,.13,.05,.22,.2,.35,.24,1.2,.36,2.41,.7,3.62,1.05,.37,.11,.74,.25,1.1,.39,.13,.05,.23,.19,.36,.23,1.24,.37,2.48,.71,3.71,1.08,.35,.1,.68,.25,1.02,.38,1.15,.44,2.29,.9,3.45,1.29,.27,.09,.63,.02,.92-.08,.48-.16,.66-.56,.24-.91-.55-.46-1.15-.93-1.81-1.18-2.07-.79-4.18-1.49-6.28-2.19-1.24-.41-2.51-.75-3.76-1.14-.87-.27-1.73-.56-2.59-.85-2.15-.73-4.31-1.43-6.43-2.25-.54-.21-.96-.78-1.34-1.26-.14-.18,.01-.58,.03-.88,.26,.05,.52,.08,.77,.16,.42,.14,.83,.34,1.25,.49,1.38,.48,2.76,.96,4.14,1.43,.11,.04,.2,.11,.31,.14,1.25,.35,2.51,.66,3.74,1.06,1.23,.4,2.41,.92,3.63,1.35,.8,.28,1.62,.51,2.43,.76,2.26,.7,4.52,1.38,6.76,2.11,1.19,.38,2.36,.83,3.52,1.28,.94,.36,1.54-.03,1.42-1.01-.33-2.71,1.37-5.36,3.81-6.44,2.08-.92,4.26-1.07,6.45-1.4,1.17-.18,2.3-.75,3.37-1.3,1.31-.67,2.55-1.47,3.77-2.3,.88-.6,1.67-1.34,2.5-2.01,.04-.03,.06-.12,.1-.14,.92-.41,1.83-.82,2.75-1.23l.22,.34c-.65,.6-1.3,1.21-1.96,1.81-2.11,1.89-4.22,3.78-6.34,5.66-.55,.49-1.24,.85-1.7,1.41-.6,.73-1.14,1.55-1.5,2.41-.78,1.86-1.42,3.77-2.13,5.65-.34,.89-.69,1.78-1.06,2.66-.46,1.09-.84,2.23-1.44,3.24-.87,1.48-1.76,2.99-2.88,4.26-1.04,1.18-2.36,2.13-3.64,3.05-1.1,.79-2.32,1.42-3.5,2.1-2.6,1.52-5.13,3.13-6.77,5.78-1.31,2.12-2.62,4.25-3.99,6.34-1.16,1.78-2.39,3.52-3.64,5.24-.17,.24-.68,.23-1.03,.34,.04-.32,.01-.67,.13-.96,.32-.78,.71-1.53,1.05-2.3,.41-.93,.75-1.89,1.18-2.81,.43-.94,.94-1.85,1.39-2.79,.3-.64,.54-1.3,.8-1.96,.4-.97,.77-1.95,1.2-2.9,.42-.92,.91-1.81,1.34-2.73,.31-.66,.58-1.35,.86-2.02,.39-.94,.77-1.89,1.17-2.82,.13-.31,.33-.59,.52-.87,.45-.68,.31-1.07-.33-1.55-1.23-.91-2.4-1.9-3.59-2.86-.44-.35-.95-.66-1.3-1.09-.25-.31-.3-.8-.43-1.21,.42,0,.87-.1,1.25,.01,1.6,.47,3.18,.98,4.76,1.52,1.25,.43,2.47,.93,3.71,1.36,.48,.17,1,.21,1.49,.36,.4,.13,.77,.39,1.18,.48,.29,.07,.75,.05,.91-.13,.14-.15,.09-.7-.08-.88-.38-.39-.85-.73-1.34-.95-1.11-.49-2.25-.94-3.41-1.33-1.26-.43-2.54-.75-3.81-1.16-1.31-.42-2.61-.89-3.92-1.34-.13-.05-.26-.13-.39-.17-1.28-.36-2.57-.68-3.82-1.11-.48-.17-.88-.58-1.3-.91-.07-.06-.09-.29-.03-.38,.06-.09,.26-.16,.36-.12,.67,.21,1.34,.44,2,.68,.11,.04,.19,.14,.29,.17,1.27,.37,2.55,.7,3.81,1.1,1.23,.39,2.44,.86,3.66,1.3,.08,.03,.15,.1,.23,.12,1.86,.5,3.72,1,5.59,1.49,.04,.01,.1-.05,.22-.11Z"/><path class="cls-1" d="M38.09,149.45c2.36,.04,4.3,1.95,4.21,4.25-.09,2.13-2.03,4.21-4.38,4.15-2.25-.06-4.37-2.02-4.22-4.74,.1-1.86,2.24-3.7,4.39-3.66Z"/></g></g></svg>